<svg width="25" height="25" viewBox="0 0 25 25" fill="none" xmlns="http://www.w3.org/2000/svg">
<path fill-rule="evenodd" clip-rule="evenodd" d="M0 12.5C0 5.59644 5.59644 0 12.5 0C19.4036 0 25 5.59644 25 12.5C25 19.4036 19.4036 25 12.5 25C5.59644 25 0 19.4036 0 12.5ZM8.83365 10.3532H6.00088V18.8645H8.83365V10.3532ZM9.02019 7.72016C9.0018 6.88563 8.40503 6.25 7.43595 6.25C6.46688 6.25 5.83333 6.88563 5.83333 7.72016C5.83333 8.5374 6.44815 9.19133 7.39918 9.19133H7.41728C8.40503 9.19133 9.02019 8.5374 9.02019 7.72016ZM19.0497 13.9842C19.0497 11.3699 17.6522 10.1532 15.7881 10.1532C14.2841 10.1532 13.6107 10.9793 13.2347 11.5588V10.3533H10.4016C10.4389 11.1519 10.4016 18.8646 10.4016 18.8646H13.2347V14.1112C13.2347 13.8568 13.2531 13.603 13.328 13.4209C13.5327 12.9127 13.9989 12.3866 14.7815 12.3866C15.807 12.3866 16.2169 13.167 16.2169 14.3108V18.8643H19.0496L19.0497 13.9842Z" fill="#0003E2"/>
</svg>
