<svg width="25" height="25" viewBox="0 0 25 25" fill="none" xmlns="http://www.w3.org/2000/svg">
<path fill-rule="evenodd" clip-rule="evenodd" d="M0 12.5C0 5.59644 5.59644 0 12.5 0C19.4036 0 25 5.59644 25 12.5C25 19.4036 19.4036 25 12.5 25C5.59644 25 0 19.4036 0 12.5ZM12.7506 10.7852L12.7769 11.2177L12.3397 11.1647C10.7484 10.9617 9.35815 10.2732 8.17778 9.11683L7.60071 8.54307L7.45207 8.96677C7.1373 9.91127 7.3384 10.9087 7.99417 11.5796C8.34391 11.9503 8.26521 12.0033 7.66191 11.7826C7.45207 11.712 7.26846 11.659 7.25097 11.6855C7.18977 11.7473 7.39961 12.5506 7.56574 12.8684C7.79307 13.3097 8.25647 13.7422 8.76359 13.9982L9.19203 14.2012L8.6849 14.2101C8.19527 14.2101 8.17778 14.2189 8.23024 14.4043C8.40511 14.978 9.09585 15.5871 9.86527 15.8519L10.4074 16.0373L9.93522 16.3197C9.23574 16.7258 8.41385 16.9553 7.59197 16.973C7.19851 16.9818 6.875 17.0171 6.875 17.0436C6.875 17.1318 7.94171 17.6262 8.56249 17.8204C10.4249 18.3941 12.637 18.147 14.2982 17.1672C15.4786 16.4698 16.659 15.084 17.2098 13.7422C17.5071 13.0272 17.8044 11.7208 17.8044 11.0941C17.8044 10.6881 17.8306 10.6351 18.3202 10.1496C18.6088 9.86714 18.8798 9.55819 18.9323 9.46992C19.0197 9.3022 19.011 9.3022 18.565 9.45226C17.8219 9.71708 17.7169 9.68177 18.0842 9.28455C18.3552 9.00208 18.6787 8.49011 18.6787 8.34005C18.6787 8.31357 18.5476 8.3577 18.3989 8.43715C18.2415 8.52542 17.8918 8.65782 17.6295 8.73727L17.1573 8.88733L16.7289 8.59603C16.4928 8.43715 16.1606 8.2606 15.9857 8.20764C15.5398 8.08406 14.8578 8.10172 14.4556 8.24295C13.3627 8.64017 12.6719 9.66411 12.7506 10.7852Z" fill="#0003E2"/>
</svg>
