<svg width="30" height="30" viewBox="0 0 30 30" fill="none" xmlns="http://www.w3.org/2000/svg">
<path fill-rule="evenodd" clip-rule="evenodd" d="M15 30C23.2843 30 30 23.2843 30 15C30 6.71573 23.2843 0 15 0C6.71573 0 0 6.71573 0 15C0 23.2843 6.71573 30 15 30ZM12.919 14.3279C13.3858 14.8274 13.9304 15.0746 14.5527 15.0746C15.2425 15.0746 15.7819 14.8429 16.1605 14.3794C16.5391 13.916 16.731 13.3393 16.731 12.6545C16.731 12.0726 16.6272 11.4547 16.4198 10.8008C16.2123 10.1468 15.8752 9.56499 15.4085 9.05007C14.9417 8.53516 14.3971 8.2777 13.7748 8.2777C13.085 8.2777 12.556 8.52486 12.193 9.02433C11.8299 9.52379 11.6484 10.1159 11.6484 10.8008C11.6484 11.4187 11.7417 12.0366 11.9336 12.6545C12.1255 13.2724 12.4523 13.8285 12.919 14.3279ZM15.9012 19.2454C15.6574 19.0755 15.5226 18.9725 15.4863 18.9364C15.3462 18.9004 15.1751 18.8849 14.9676 18.8849C14.449 18.8849 13.9459 18.9364 13.4636 19.0394C12.9813 19.1424 12.5041 19.2866 12.0374 19.4771C11.5706 19.6676 11.192 19.956 10.8964 20.3525C10.6008 20.7489 10.4555 21.2175 10.4555 21.7685C10.4555 22.2473 10.5852 22.685 10.8445 23.0815C11.1038 23.478 11.4409 23.7869 11.8558 24.0083C12.2707 24.2298 12.7012 24.3945 13.1524 24.4975C13.6347 24.6365 14.1015 24.7035 14.5527 24.7035C15.5226 24.7035 16.342 24.4872 17.0162 24.0598C17.6904 23.6325 18.0276 22.9682 18.0276 22.0774C18.0276 21.9075 18.0016 21.7324 17.9498 21.5625C17.8979 21.3926 17.846 21.2381 17.7942 21.0991C17.7423 20.9601 17.649 20.8056 17.5089 20.6357L17.1459 20.2752C17.0785 20.1722 16.9384 20.0332 16.731 19.8633C16.5235 19.6934 16.3939 19.5904 16.342 19.5543C16.324 19.5418 16.2946 19.5212 16.2538 19.4924C16.1772 19.4385 16.0601 19.3562 15.9012 19.2454ZM22.9545 5.90909L21.9173 6.68146V8.12322C22.1247 8.15927 22.2285 8.32919 22.2285 8.63814V15.2805C22.2285 15.3835 22.2025 15.4762 22.1507 15.5637C22.0988 15.6513 22.0314 15.7182 21.9432 15.7697C21.855 15.8212 21.7617 15.8469 21.658 15.8469H21.4505C21.3831 15.8469 21.3053 15.8212 21.2171 15.7697C21.129 15.7182 21.0615 15.6513 21.0097 15.5637C20.9578 15.4762 20.9319 15.3835 20.9319 15.2805V8.63814C20.9319 8.29315 21.0356 8.12322 21.2431 8.12322V7.24787L18.2869 9.61648C18.3232 9.65252 18.3387 9.68342 18.3387 9.71946L18.3906 9.77095C18.6655 10.2498 18.8055 10.8368 18.8055 11.5217C18.8055 12.0366 18.7121 12.5103 18.5203 12.9377C18.3284 13.3651 18.1157 13.7101 17.872 13.9675C17.6282 14.225 17.3793 14.467 17.1199 14.6884C16.8606 14.9098 16.6376 15.1415 16.4457 15.3835C16.2538 15.6255 16.1605 15.8624 16.1605 16.1044C16.1605 16.3464 16.2798 16.5936 16.5235 16.851C16.7673 17.1085 17.0577 17.3762 17.4052 17.6491C17.7164 17.8912 18.0431 18.1641 18.3906 18.473C18.7381 18.7459 19.0233 19.127 19.2463 19.6058C19.4693 20.0847 19.5834 20.5996 19.5834 21.1506C19.5834 21.9075 19.3916 22.582 19.013 23.1845C18.6343 23.7869 18.1313 24.2658 17.5089 24.6262C16.8866 24.9867 16.2279 25.2544 15.5381 25.4244C14.8483 25.5943 14.1534 25.6818 13.4636 25.6818C13.0124 25.6818 12.5664 25.6458 12.1152 25.5788C11.6639 25.5119 11.2179 25.3883 10.7667 25.2184C10.3155 25.0485 9.92135 24.8322 9.57386 24.5748C9.22638 24.3173 8.94113 23.9929 8.71812 23.5964C8.49511 23.1999 8.38101 22.7468 8.38101 22.2319C8.38101 21.65 8.54697 21.1094 8.87371 20.6099C9.20045 20.1104 9.64129 19.6934 10.1962 19.3484C11.1661 18.7665 12.6493 18.4061 14.6564 18.267C14.2052 17.6852 13.9822 17.1342 13.9822 16.6193C13.9822 16.3464 14.0497 16.0375 14.1897 15.6925C13.9459 15.7285 13.7074 15.744 13.4636 15.744C12.3589 15.744 11.4306 15.3938 10.6889 14.6884C9.94728 13.983 9.57386 13.0819 9.57386 11.9851V11.6761H5.11364L11.8558 5.90909H22.9545Z" fill="#0003E2"/>
</svg>
