<svg width="30" height="30" viewBox="0 0 30 30" fill="none" xmlns="http://www.w3.org/2000/svg">
<path d="M30 15C30 23.25 23.25 30 15 30C6.65625 30 0 23.25 0 15C0 6.75 6.75 0 15 0C23.3437 0 30 6.75 30 15ZM16.125 21.5625C14.8125 21.2812 13.9688 20.5313 12 17.5313C11.3438 16.5 11.3437 16.5 10.6875 16.5C9.75 16.4063 9.84375 16.3125 9.84375 18.375C9.84375 20.8125 9.84375 20.7187 11.25 21C11.625 21.0937 11.625 21.0938 11.625 21.2813C11.625 21.5625 11.625 21.5625 9.1875 21.5625C6.84375 21.5625 6.75 21.5625 6.65625 21.4687C6.5625 21.1875 6.75 21.0937 7.21875 21C7.78125 20.9062 8.0625 20.625 8.15625 20.25C8.15625 20.0625 8.25 18.0937 8.15625 15.75C8.15625 10.875 8.15625 11.1562 7.3125 10.9687C6.75 10.875 6.5625 10.6875 6.65625 10.5C6.75 10.3125 6.84375 10.3125 9.375 10.3125C13.2187 10.2187 13.875 10.4063 14.9062 11.25C15.9375 12.1875 16.125 13.6875 15.2812 14.8125C14.9062 15.375 14.1563 15.9375 13.5938 16.125C13.3125 16.2188 13.125 16.3125 13.125 16.4062C13.125 16.5 13.9687 17.7188 14.5312 18.375C15.9375 20.1563 16.6875 20.8125 17.5313 21C18 21.0937 18.1875 21.2812 18 21.4687C17.8125 21.75 17.0625 21.75 16.125 21.5625ZM12.5625 15.375C14.4375 14.625 14.5313 12 12.75 11.25C12.2813 11.0625 12.1875 11.0625 10.9687 11.0625C9.75 11.0625 9.75 11.0625 9.65625 13.2188C9.65625 14.4375 9.65625 15.4688 9.65625 15.4688C9.9375 15.75 12 15.5625 12.5625 15.375ZM19.125 12.75C17.7187 12.4688 17.1562 11.625 17.25 9.28125C17.25 7.96875 17.3438 7.6875 17.9063 7.125C18.75 6.1875 20.9063 6.28125 21.6563 7.3125C22.0313 7.6875 21.9375 7.875 21.4687 7.96875C21.0937 8.0625 21.0938 8.0625 20.7188 7.78125C19.875 7.03125 18.5625 7.3125 18.2812 8.25C18.1875 8.71875 18.1875 10.5937 18.2812 10.9687C18.6563 12.1875 20.625 12.1875 20.9062 10.9687C21.0937 10.2187 21.0938 10.125 20.1562 10.125C19.6875 10.125 19.6875 10.125 19.6875 9.75C19.6875 9.375 19.6875 9.375 20.7188 9.375C22.125 9.375 22.0312 9.28125 22.0312 10.3125C21.9375 11.5312 21.5625 12.1875 20.8125 12.5625C20.4375 12.75 19.6875 12.8438 19.125 12.75Z" fill="#0003E2"/>
<path d="M16.126 21.5628C14.8135 21.2816 13.9697 20.5316 12.001 17.5316C11.3447 16.5003 11.3447 16.5003 10.6885 16.5003C9.75098 16.4066 9.84473 16.3128 9.84473 18.3753C9.84473 20.8128 9.84473 20.7191 11.251 21.0003C11.626 21.0941 11.626 21.0941 11.626 21.2816C11.626 21.5628 11.626 21.5628 9.18848 21.5628C6.84473 21.5628 6.75098 21.5628 6.65723 21.4691C6.56348 21.1878 6.75098 21.0941 7.21973 21.0003C7.78223 20.9066 8.06348 20.6253 8.15723 20.2503C8.15723 20.0628 8.25098 18.0941 8.15723 15.7503C8.15723 10.8753 8.15723 11.1566 7.31348 10.9691C6.75098 10.8753 6.56348 10.6878 6.65723 10.5003C6.75098 10.3128 6.84473 10.3128 9.37598 10.3128C13.2197 10.2191 13.876 10.4066 14.9072 11.2503C15.9385 12.1878 16.126 13.6878 15.2822 14.8128C14.9072 15.3753 14.1572 15.9378 13.5947 16.1253C13.3135 16.2191 13.126 16.3128 13.126 16.4066C13.126 16.5003 13.9697 17.7191 14.5322 18.3753C15.9385 20.1566 16.6885 20.8128 17.5322 21.0003C18.001 21.0941 18.1885 21.2816 18.001 21.4691C17.8135 21.7503 17.0635 21.7503 16.126 21.5628ZM12.5635 15.3753C14.4385 14.6253 14.5322 12.0003 12.751 11.2503C12.2822 11.0628 12.1885 11.0628 10.9697 11.0628C9.75098 11.0628 9.75098 11.0628 9.65723 13.2191C9.65723 14.4378 9.65723 15.4691 9.65723 15.4691C9.93848 15.7503 12.001 15.5628 12.5635 15.3753ZM19.126 12.7503C17.7197 12.4691 17.1572 11.6253 17.251 9.28159C17.251 7.96909 17.3447 7.68784 17.9072 7.12534C18.751 6.18784 20.9072 6.28159 21.6572 7.31284C22.0322 7.68784 21.9385 7.87534 21.4697 7.96909C21.0947 8.06284 21.0947 8.06284 20.7197 7.78159C19.876 7.03159 18.5635 7.31284 18.2822 8.25034C18.1885 8.71909 18.1885 10.5941 18.2822 10.9691C18.6572 12.1878 20.626 12.1878 20.9072 10.9691C21.0947 10.2191 21.0947 10.1253 20.1572 10.1253C19.6885 10.1253 19.6885 10.1253 19.6885 9.75034C19.6885 9.37534 19.6885 9.37534 20.7197 9.37534C22.126 9.37534 22.0322 9.28159 22.0322 10.3128C21.9385 11.5316 21.5635 12.1878 20.8135 12.5628C20.4385 12.7503 19.6885 12.8441 19.126 12.7503Z" fill="white"/>
</svg>
