<svg width="30" height="30" viewBox="0 0 30 30" fill="none" xmlns="http://www.w3.org/2000/svg">
<path fill-rule="evenodd" clip-rule="evenodd" d="M0 15C0 6.71573 6.71573 0 15 0C23.2843 0 30 6.71573 30 15C30 23.2843 23.2843 30 15 30C6.71573 30 0 23.2843 0 15ZM10.6004 12.4237H7.20104V22.6373H10.6004V12.4237ZM10.8242 9.26419C10.8022 8.26275 10.086 7.5 8.92313 7.5C7.76024 7.5 6.99999 8.26275 6.99999 9.26419C6.99999 10.2449 7.73777 11.0296 8.87901 11.0296H8.90073C10.086 11.0296 10.8242 10.2449 10.8242 9.26419ZM22.8596 16.7811C22.8596 13.6439 21.1826 12.1838 18.9457 12.1838C17.1409 12.1838 16.3328 13.1751 15.8817 13.8706V12.4239H12.4819C12.5267 13.3823 12.4819 22.6375 12.4819 22.6375H15.8817V16.9334C15.8817 16.6281 15.9037 16.3236 15.9936 16.1051C16.2393 15.4953 16.7987 14.8639 17.7378 14.8639C18.9684 14.8639 19.4603 15.8004 19.4603 17.173V22.6372H22.8595L22.8596 16.7811Z" fill="#0003E2"/>
</svg>
