<svg width="30" height="30" viewBox="0 0 30 30" fill="none" xmlns="http://www.w3.org/2000/svg">
<path d="M24.1082 15.3024C24.1082 19.7177 21.0421 21.5927 16.7735 21.5927H12.9259V9.19355H17.0741C21.5832 9.19355 24.1082 11.7944 24.1082 15.3024ZM9.25852 7.92339C8.59719 7.92339 8.05611 7.37903 8.05611 6.65323C8.05611 5.9879 8.59719 5.44355 9.25852 5.44355C9.91984 5.44355 10.4609 5.9879 10.4609 6.65323C10.4609 7.31855 10.1002 7.80242 9.25852 7.92339ZM8.35671 21.6532V9.19355H10.1603V21.6532H8.35671ZM15.0902 0C6.31263 0 0 7.31855 0 15C0 23.1653 6.85371 30 15.0902 30C23.3267 30 30 23.2863 30 15C30 6.71371 23.3267 0 15.0902 0ZM22.4248 15.3024C22.4248 12.1573 20.3808 10.7661 16.8938 10.7661H14.6693V20.0202H16.9539C20.2605 20.0202 22.4248 18.5081 22.4248 15.3024Z" fill="#0003E2"/>
</svg>
