<svg width="30" height="30" viewBox="0 0 30 30" fill="none" xmlns="http://www.w3.org/2000/svg">
<path fill-rule="evenodd" clip-rule="evenodd" d="M15 30C6.71573 30 0 23.2843 0 15C0 6.71573 6.71573 0 15 0C23.2843 0 30 6.71573 30 15C30 23.2843 23.2843 30 15 30ZM19.3474 14.952C19.0973 14.8751 18.9257 14.8256 19.0556 14.4934C19.34 13.7721 19.3694 13.1499 19.0605 12.7037C18.4843 11.8708 16.9054 11.9154 15.096 12.6814C15.096 12.6814 14.5272 12.9318 14.6743 12.4781C14.9514 11.5734 14.9097 10.8173 14.4782 10.3786C13.4975 9.38456 10.8863 10.4158 8.6479 12.6789C6.97335 14.3719 6 16.1691 6 17.7233C6 20.6929 9.76835 22.5 13.4533 22.5C18.2857 22.5 21.5 19.6618 21.5 17.4085C21.5024 16.0452 20.3673 15.2718 19.3474 14.952ZM22.7347 9.52406C21.5164 8.25328 19.7196 7.76951 18.061 8.10165C17.6771 8.17867 17.434 8.53487 17.5159 8.89348C17.5978 9.2545 17.974 9.48314 18.358 9.40613C19.5379 9.17026 20.8151 9.51443 21.6802 10.417C22.5453 11.3195 22.7808 12.5494 22.4097 13.6276C22.2894 13.979 22.4942 14.3545 22.8678 14.4676C23.2415 14.5807 23.6408 14.3882 23.7611 14.0392V14.0368C24.2833 12.5229 23.9531 10.7924 22.7347 9.52406ZM20.8619 11.2769C20.246 10.6285 19.3382 10.3813 18.5021 10.5529C18.1596 10.621 17.942 10.9439 18.0136 11.2693C18.088 11.5947 18.4251 11.8016 18.7649 11.731C19.1736 11.6477 19.6196 11.7688 19.9195 12.0841C20.2195 12.402 20.3018 12.8334 20.1717 13.2118C20.0655 13.5271 20.246 13.8677 20.5805 13.9711C20.915 14.072 21.2707 13.9005 21.3795 13.5826C21.6423 12.8081 21.4777 11.9252 20.8619 11.2769Z" fill="#0003E2"/>
<path fill-rule="evenodd" clip-rule="evenodd" d="M13.466 21.4339C10.5239 21.7289 7.98392 20.3829 7.79268 18.432C7.60144 16.4787 9.83254 14.6593 12.7722 14.3643C15.7143 14.0693 18.2543 15.4153 18.4431 17.3661C18.6368 19.3194 16.4057 21.1414 13.466 21.4339ZM14.082 16.0983C12.5912 15.727 10.9073 16.4372 10.2598 17.6905C9.59924 18.9688 10.2389 20.3892 11.7427 20.8526C13.304 21.3335 15.142 20.596 15.7817 19.218C16.4135 17.8675 15.625 16.4795 14.082 16.0983Z" fill="#0003E2"/>
<path fill-rule="evenodd" clip-rule="evenodd" d="M13.9432 18.1419C13.8336 18.3213 13.5908 18.406 13.4028 18.3313C13.2148 18.259 13.1574 18.0572 13.2644 17.8828C13.3741 17.7083 13.6064 17.6236 13.7918 17.6934C13.9798 17.7582 14.0477 17.96 13.9432 18.1419Z" fill="#0003E2"/>
<path fill-rule="evenodd" clip-rule="evenodd" d="M12.9434 19.3627C12.6406 19.8237 11.9905 20.0255 11.5022 19.8137C11.0219 19.6044 10.8783 19.0687 11.1811 18.6176C11.4814 18.1691 12.108 17.9698 12.5936 18.1641C13.0844 18.366 13.2411 18.8967 12.9434 19.3627Z" fill="#0003E2"/>
</svg>
