<svg width="31" height="30" viewBox="0 0 31 30" fill="none" xmlns="http://www.w3.org/2000/svg">
<g clip-path="url(#clip0)">
<path d="M15.2727 0C12.6906 0 10.0982 0.689504 7.49699 2.06997C2.49851 5.43294 0 9.80029 0 15.1749C0 18.4985 1.05633 21.5554 3.16898 24.344C5.06597 27.016 7.98554 28.9023 11.9277 30C11.9277 29.8732 12.0788 29.6312 12.3825 29.2711V27.5656L12.2945 27.3907C11.825 27.3907 11.4039 27.4198 11.0327 27.4781C9.63458 27.4781 8.6076 27.1472 7.95179 26.4869C7.31653 25.223 6.89547 24.4752 6.69007 24.242C5.78046 23.4548 5.32565 22.9781 5.32565 22.8134L5.78046 22.6239C6.39665 22.6239 7.03191 22.8965 7.68771 23.4402C8.6076 24.9373 9.50694 25.6851 10.3872 25.6851H10.4899C11.1648 25.6851 11.7663 25.5933 12.2945 25.4082C12.5483 24.5335 12.8476 23.9067 13.1894 23.5277V23.3528H12.9253C11.6343 23.1676 10.641 22.8673 9.94708 22.449C7.77574 21.3601 6.69007 19.3542 6.69007 16.4286C6.69007 15 7.16982 13.6545 8.12785 12.3907C8.12785 12.3324 8.03982 11.8557 7.86377 10.9621V10.7726C7.97087 9.65452 8.15279 8.90671 8.4066 8.5277C9.53188 8.5277 10.8274 9.0379 12.2945 10.0583C13.7323 9.75656 14.6081 9.60641 14.9206 9.60641H16.9012C17.4294 9.60641 18.3346 9.75656 19.6154 10.0583C21.1603 9.0379 22.4279 8.5277 23.4152 8.5277C23.6984 8.5277 23.9097 9.24636 24.0461 10.6851V10.8601C24.0461 11.3076 23.9537 11.8178 23.7674 12.3907C23.8657 12.5758 23.9581 12.6676 24.0461 12.6676C24.7313 13.7274 25.1215 14.6837 25.2198 15.5394V16.6181C25.2198 18.688 24.5845 20.3644 23.3125 21.6472C22.3545 22.4927 20.8184 23.0904 18.7058 23.4402C19.2149 24.1108 19.4878 24.6793 19.5274 25.1458V29.0087L19.8795 29.4606C20.6028 29.4606 21.841 28.9213 23.5913 27.8426C28.2274 24.5773 30.5455 20.3251 30.5455 15.0875C30.5455 12.1035 29.6109 9.23178 27.7433 6.4723C24.4466 2.15743 20.2903 0 15.2727 0Z" fill="#0003E2"/>
</g>
<defs>
<clipPath id="clip0">
<rect width="30.5455" height="30" fill="white"/>
</clipPath>
</defs>
</svg>
