<svg width="30" height="30" viewBox="0 0 30 30" fill="none" xmlns="http://www.w3.org/2000/svg">
<path fill-rule="evenodd" clip-rule="evenodd" d="M0 15C0 6.71573 6.71573 0 15 0C23.2843 0 30 6.71573 30 15C30 23.2843 23.2843 30 15 30C6.71573 30 0 23.2843 0 15ZM15.3008 12.9422L15.3322 13.4612L14.8076 13.3977C12.898 13.154 11.2298 12.3278 9.81334 10.9402L9.12085 10.2517L8.94248 10.7601C8.56476 11.8935 8.80609 13.0905 9.593 13.8955C10.0127 14.3404 9.91826 14.404 9.1943 14.1391C8.94248 14.0544 8.72215 13.9908 8.70116 14.0226C8.62772 14.0968 8.87953 15.0607 9.07888 15.442C9.35168 15.9717 9.90777 16.4907 10.5163 16.7979L11.0304 17.0415L10.4219 17.0521C9.83432 17.0521 9.81334 17.0627 9.87629 17.2851C10.0861 17.9736 10.915 18.7045 11.8383 19.0223L12.4888 19.2447L11.9223 19.5837C11.0829 20.071 10.0966 20.3464 9.11036 20.3675C8.63821 20.3781 8.25 20.4205 8.25 20.4523C8.25 20.5582 9.53005 21.1514 10.275 21.3844C12.5098 22.0729 15.1644 21.7764 17.1579 20.6006C18.5743 19.7638 19.9908 18.1007 20.6518 16.4907C21.0085 15.6327 21.3652 14.065 21.3652 13.3129C21.3652 12.8257 21.3967 12.7621 21.9843 12.1795C22.3305 11.8406 22.6558 11.4698 22.7187 11.3639C22.8237 11.1626 22.8132 11.1626 22.2781 11.3427C21.3862 11.6605 21.2603 11.6181 21.701 11.1415C22.0262 10.8025 22.4145 10.1881 22.4145 10.0081C22.4145 9.97628 22.2571 10.0292 22.0787 10.1246C21.8898 10.2305 21.4702 10.3894 21.1554 10.4847L20.5888 10.6648L20.0747 10.3152C19.7914 10.1246 19.3927 9.91272 19.1829 9.84917C18.6478 9.70087 17.8294 9.72206 17.3467 9.89154C16.0352 10.3682 15.2063 11.5969 15.3008 12.9422Z" fill="#0003E2"/>
</svg>
