<svg width="30" height="30" viewBox="0 0 30 30" fill="none" xmlns="http://www.w3.org/2000/svg">
<circle cx="15" cy="15" r="15" fill="#0003E2"/>
<path d="M10.2583 21.0156C9.53204 21.0156 8.70544 21.3658 7.78058 22.0684C8.96175 23.4863 10.7858 24.4896 13.2485 25.0762V24.8184C12.0674 23.5572 11.0699 22.2896 10.2583 21.0156ZM19.8913 20.8867C18.5819 22.7623 17.5353 24.0729 16.7515 24.8184V25.0762C19.2014 24.4896 20.9806 23.5293 22.0913 22.1973V22.0684C22.0913 21.8385 21.3586 21.4453 19.8913 20.8867ZM15.5767 20.2422C15.4336 20.2422 15.3482 20.3281 15.3204 20.5V24.4316C15.3204 24.6035 15.4058 24.6895 15.5767 24.6895C17.0868 23.3725 18.1334 22.1049 18.7165 20.8867C18.7165 20.5709 17.8045 20.3561 15.9825 20.2422H15.5767ZM13.8893 20.2422C12.266 20.4141 11.3967 20.5859 11.2835 20.7578C11.512 21.7031 12.5586 22.9707 14.4233 24.5605L14.5515 24.3027V20.6289C14.4083 20.3711 14.2738 20.2422 14.1456 20.2422H13.8893ZM21.1728 15.6445C20.8887 17.5072 20.547 18.8607 20.1476 19.7051V19.834C20.1476 20.0209 21.0169 20.5 22.7534 21.2734C24.3062 19.6127 25.0816 17.8295 25.0816 15.9238C25.0816 15.767 24.9961 15.6725 24.8252 15.6445H21.1728ZM15.5767 15.6445C15.4336 15.6445 15.3482 15.7369 15.3204 15.9238V19.1895C15.519 19.3463 16.7365 19.5611 18.9728 19.834C19.5282 19.5182 19.9617 18.2162 20.2757 15.9238C20.2757 15.767 20.1903 15.6725 20.0194 15.6445H15.5767ZM10.1087 15.6445C9.96563 15.6445 9.88019 15.7369 9.85243 15.9238C9.85243 17.1979 10.1579 18.502 10.7709 19.834C13.2913 19.6041 14.5515 19.3463 14.5515 19.0605V15.9238C14.5515 15.767 14.4596 15.6725 14.2738 15.6445H10.1087ZM4.91845 15.9238C5.00388 16.6393 5.08932 17.0775 5.17476 17.2344C5.97146 19.9264 6.6635 21.2734 7.2466 21.2734C7.82971 20.9297 8.69903 20.543 9.85243 20.1133C9.85243 19.4967 9.76699 19.1895 9.59612 19.1895C9.11126 16.8262 8.80583 15.6445 8.67767 15.6445H5.30291L4.91845 15.9238ZM19.2291 10.4238C16.6233 10.6537 15.3204 10.9115 15.3204 11.1973V14.4844C15.4635 14.7422 15.5981 14.8711 15.7262 14.8711H19.8913C20.1476 14.7271 20.2757 14.5982 20.2757 14.4844C20.2757 13.2383 19.9276 11.8848 19.2291 10.4238ZM10.899 10.4238C10.4996 10.4238 10.1087 11.7773 9.72427 14.4844C9.92291 14.7422 10.0511 14.8711 10.1087 14.8711H14.1456C14.4169 14.7271 14.5515 14.5982 14.5515 14.4844V11.0684C14.3955 10.9244 13.1781 10.7096 10.899 10.4238ZM22.7534 8.98438C22.3262 9.24219 21.4996 9.62891 20.2757 10.1445C20.2757 10.7182 20.4466 11.3326 20.7883 11.9922C20.9315 13.9107 21.1515 14.8711 21.4505 14.8711H24.6971C24.9534 14.7271 25.0816 14.5982 25.0816 14.4844V14.334C25.0816 12.4713 24.3917 10.6881 23.0097 8.98438H22.7534ZM6.99029 8.98438C5.60835 10.7611 4.91845 12.5443 4.91845 14.334C4.96117 14.6928 5.08932 14.8711 5.30291 14.8711H8.54951L8.82718 14.7422C9.02583 13.0514 9.32485 11.7408 9.72427 10.8105V10.1445C8.62854 9.72988 7.80194 9.34316 7.2466 8.98438H6.99029ZM15.5767 5.43945C15.4336 5.43945 15.3482 5.52539 15.3204 5.69727V9.75781C15.3204 9.92969 15.4058 10.0156 15.5767 10.0156H16.2388C17.9753 9.88672 18.8447 9.67188 18.8447 9.37109C18.2893 8.21094 17.2 6.90039 15.5767 5.43945ZM14.4233 5.43945C12.3301 7.37305 11.2835 8.72656 11.2835 9.5C11.2835 9.6998 12.1101 9.87168 13.7612 10.0156H14.1456C14.4169 9.88672 14.5515 9.75781 14.5515 9.62891V5.69727L14.4233 5.43945ZM16.7515 5.05273C16.7515 5.13867 16.7087 5.18164 16.6233 5.18164C18.0181 6.58457 19.0583 7.93809 19.7417 9.24219C20.4252 9.24219 21.2946 8.89199 22.3476 8.18945L21.7068 7.39453C19.8272 5.91855 18.1761 5.13867 16.7515 5.05273ZM13.2485 5.05273C11.7961 5.05273 9.97417 6.01309 7.78058 7.93164V8.18945C7.93651 8.51816 8.67126 8.87051 9.98058 9.24219H10.1087C11.8025 6.80801 12.8918 5.49746 13.3767 5.31055L13.2485 5.05273ZM4 15C4 13.1094 4.60447 11.1049 5.81553 8.98438C8.39359 5.66074 11.2621 4 14.4233 4H15.5767C17.3004 4 19.2569 4.70254 21.4505 6.10547C24.4835 8.64062 26 11.5195 26 14.7422C25.9146 14.7422 25.8718 14.7852 25.8718 14.8711L26 15.1289L25.8718 15.3867L26 15.6445C26 17.3912 25.2161 19.4473 23.6505 21.8105C21.1151 24.6035 18.5179 26 15.8544 26H13.8893C12.4796 25.7572 11.4394 25.4908 10.7709 25.2051C6.25767 22.8697 4 19.4688 4 15Z" fill="white"/>
</svg>
